<mxfile host="app.diagrams.net" agent="Mozilla/5.0 (Macintosh; Intel Mac OS X 10_15_7) AppleWebKit/605.1.15 (KHTML, like Gecko) Version/18.3 Safari/605.1.15" version="28.1.1">
  <diagram name="Page-1" id="UKHTQJSMqRWIpkA-EPcl">
    <mxGraphModel dx="1263" dy="1126" grid="1" gridSize="10" guides="1" tooltips="1" connect="1" arrows="1" fold="1" page="1" pageScale="1" pageWidth="1169" pageHeight="827" background="light-dark(#FFFFFF,#FFFFFF)" math="0" shadow="0">
      <root>
        <mxCell id="0" />
        <mxCell id="1" parent="0" />
        <mxCell id="PKO88a7LwcqLftBzNjsi-34" value="" style="group" parent="1" vertex="1" connectable="0">
          <mxGeometry x="190" y="140" width="440" height="80" as="geometry" />
        </mxCell>
        <mxCell id="PKO88a7LwcqLftBzNjsi-14" value="" style="shape=table;startSize=0;container=1;collapsible=0;childLayout=tableLayout;" parent="PKO88a7LwcqLftBzNjsi-34" vertex="1">
          <mxGeometry width="440" height="40" as="geometry" />
        </mxCell>
        <mxCell id="PKO88a7LwcqLftBzNjsi-15" value="" style="shape=tableRow;horizontal=0;startSize=0;swimlaneHead=0;swimlaneBody=0;strokeColor=inherit;top=0;left=0;bottom=0;right=0;collapsible=0;dropTarget=0;fillColor=none;points=[[0,0.5],[1,0.5]];portConstraint=eastwest;" parent="PKO88a7LwcqLftBzNjsi-14" vertex="1">
          <mxGeometry width="440" height="40" as="geometry" />
        </mxCell>
        <mxCell id="PKO88a7LwcqLftBzNjsi-16" value="&lt;b&gt;FestivalGoer&lt;/b&gt;" style="shape=partialRectangle;html=1;whiteSpace=wrap;connectable=0;strokeColor=inherit;overflow=hidden;fillColor=none;top=0;left=0;bottom=0;right=0;pointerEvents=1;" parent="PKO88a7LwcqLftBzNjsi-15" vertex="1">
          <mxGeometry width="440" height="40" as="geometry">
            <mxRectangle width="440" height="40" as="alternateBounds" />
          </mxGeometry>
        </mxCell>
        <mxCell id="PKO88a7LwcqLftBzNjsi-27" value="" style="shape=table;startSize=0;container=1;collapsible=0;childLayout=tableLayout;" parent="PKO88a7LwcqLftBzNjsi-34" vertex="1">
          <mxGeometry y="40" width="440" height="40" as="geometry" />
        </mxCell>
        <mxCell id="PKO88a7LwcqLftBzNjsi-28" value="" style="shape=tableRow;horizontal=0;startSize=0;swimlaneHead=0;swimlaneBody=0;strokeColor=inherit;top=0;left=0;bottom=0;right=0;collapsible=0;dropTarget=0;fillColor=none;points=[[0,0.5],[1,0.5]];portConstraint=eastwest;" parent="PKO88a7LwcqLftBzNjsi-27" vertex="1">
          <mxGeometry width="440" height="40" as="geometry" />
        </mxCell>
        <mxCell id="PKO88a7LwcqLftBzNjsi-29" value="&lt;u&gt;FestivalGoerID&lt;/u&gt;" style="shape=partialRectangle;html=1;whiteSpace=wrap;connectable=0;strokeColor=inherit;overflow=hidden;fillColor=none;top=0;left=0;bottom=0;right=0;pointerEvents=1;" parent="PKO88a7LwcqLftBzNjsi-28" vertex="1">
          <mxGeometry width="88" height="40" as="geometry">
            <mxRectangle width="88" height="40" as="alternateBounds" />
          </mxGeometry>
        </mxCell>
        <mxCell id="PKO88a7LwcqLftBzNjsi-30" value="FGFirstName" style="shape=partialRectangle;html=1;whiteSpace=wrap;connectable=0;strokeColor=inherit;overflow=hidden;fillColor=none;top=0;left=0;bottom=0;right=0;pointerEvents=1;" parent="PKO88a7LwcqLftBzNjsi-28" vertex="1">
          <mxGeometry x="88" width="88" height="40" as="geometry">
            <mxRectangle width="88" height="40" as="alternateBounds" />
          </mxGeometry>
        </mxCell>
        <mxCell id="PKO88a7LwcqLftBzNjsi-31" value="FGLastName" style="shape=partialRectangle;html=1;whiteSpace=wrap;connectable=0;strokeColor=inherit;overflow=hidden;fillColor=none;top=0;left=0;bottom=0;right=0;pointerEvents=1;" parent="PKO88a7LwcqLftBzNjsi-28" vertex="1">
          <mxGeometry x="176" width="88" height="40" as="geometry">
            <mxRectangle width="88" height="40" as="alternateBounds" />
          </mxGeometry>
        </mxCell>
        <mxCell id="PKO88a7LwcqLftBzNjsi-32" value="FGMailAddress" style="shape=partialRectangle;html=1;whiteSpace=wrap;connectable=0;strokeColor=inherit;overflow=hidden;fillColor=none;top=0;left=0;bottom=0;right=0;pointerEvents=1;" parent="PKO88a7LwcqLftBzNjsi-28" vertex="1">
          <mxGeometry x="264" width="88" height="40" as="geometry">
            <mxRectangle width="88" height="40" as="alternateBounds" />
          </mxGeometry>
        </mxCell>
        <mxCell id="PKO88a7LwcqLftBzNjsi-33" value="FGPhone" style="shape=partialRectangle;html=1;whiteSpace=wrap;connectable=0;strokeColor=inherit;overflow=hidden;fillColor=none;top=0;left=0;bottom=0;right=0;pointerEvents=1;" parent="PKO88a7LwcqLftBzNjsi-28" vertex="1">
          <mxGeometry x="352" width="88" height="40" as="geometry">
            <mxRectangle width="88" height="40" as="alternateBounds" />
          </mxGeometry>
        </mxCell>
        <mxCell id="PKO88a7LwcqLftBzNjsi-47" value="" style="group" parent="1" vertex="1" connectable="0">
          <mxGeometry x="190" y="248" width="400" height="80" as="geometry" />
        </mxCell>
        <mxCell id="PKO88a7LwcqLftBzNjsi-35" value="" style="shape=table;startSize=0;container=1;collapsible=0;childLayout=tableLayout;" parent="PKO88a7LwcqLftBzNjsi-47" vertex="1">
          <mxGeometry width="400" height="40" as="geometry" />
        </mxCell>
        <mxCell id="PKO88a7LwcqLftBzNjsi-36" value="" style="shape=tableRow;horizontal=0;startSize=0;swimlaneHead=0;swimlaneBody=0;strokeColor=inherit;top=0;left=0;bottom=0;right=0;collapsible=0;dropTarget=0;fillColor=none;points=[[0,0.5],[1,0.5]];portConstraint=eastwest;" parent="PKO88a7LwcqLftBzNjsi-35" vertex="1">
          <mxGeometry width="400" height="40" as="geometry" />
        </mxCell>
        <mxCell id="PKO88a7LwcqLftBzNjsi-37" value="&lt;b&gt;SponsorRep&lt;/b&gt;" style="shape=partialRectangle;html=1;whiteSpace=wrap;connectable=0;strokeColor=inherit;overflow=hidden;fillColor=none;top=0;left=0;bottom=0;right=0;pointerEvents=1;" parent="PKO88a7LwcqLftBzNjsi-36" vertex="1">
          <mxGeometry width="400" height="40" as="geometry">
            <mxRectangle width="400" height="40" as="alternateBounds" />
          </mxGeometry>
        </mxCell>
        <mxCell id="PKO88a7LwcqLftBzNjsi-38" value="" style="shape=table;startSize=0;container=1;collapsible=0;childLayout=tableLayout;" parent="PKO88a7LwcqLftBzNjsi-47" vertex="1">
          <mxGeometry y="40" width="190" height="40" as="geometry" />
        </mxCell>
        <mxCell id="PKO88a7LwcqLftBzNjsi-39" value="" style="shape=tableRow;horizontal=0;startSize=0;swimlaneHead=0;swimlaneBody=0;strokeColor=inherit;top=0;left=0;bottom=0;right=0;collapsible=0;dropTarget=0;fillColor=none;points=[[0,0.5],[1,0.5]];portConstraint=eastwest;" parent="PKO88a7LwcqLftBzNjsi-38" vertex="1">
          <mxGeometry width="190" height="40" as="geometry" />
        </mxCell>
        <mxCell id="PKO88a7LwcqLftBzNjsi-40" value="&lt;u&gt;FestivalGoerID&lt;/u&gt;" style="shape=partialRectangle;html=1;whiteSpace=wrap;connectable=0;strokeColor=inherit;overflow=hidden;fillColor=none;top=0;left=0;bottom=0;right=0;pointerEvents=1;" parent="PKO88a7LwcqLftBzNjsi-39" vertex="1">
          <mxGeometry width="100" height="40" as="geometry">
            <mxRectangle width="100" height="40" as="alternateBounds" />
          </mxGeometry>
        </mxCell>
        <mxCell id="PKO88a7LwcqLftBzNjsi-41" value="TFN" style="shape=partialRectangle;html=1;whiteSpace=wrap;connectable=0;strokeColor=inherit;overflow=hidden;fillColor=none;top=0;left=0;bottom=0;right=0;pointerEvents=1;" parent="PKO88a7LwcqLftBzNjsi-39" vertex="1">
          <mxGeometry x="100" width="90" height="40" as="geometry">
            <mxRectangle width="90" height="40" as="alternateBounds" />
          </mxGeometry>
        </mxCell>
        <mxCell id="PKO88a7LwcqLftBzNjsi-42" value="" style="shape=table;startSize=0;container=1;collapsible=0;childLayout=tableLayout;" parent="PKO88a7LwcqLftBzNjsi-47" vertex="1">
          <mxGeometry x="190" y="40" width="210" height="40" as="geometry" />
        </mxCell>
        <mxCell id="PKO88a7LwcqLftBzNjsi-43" value="" style="shape=tableRow;horizontal=0;startSize=0;swimlaneHead=0;swimlaneBody=0;strokeColor=inherit;top=0;left=0;bottom=0;right=0;collapsible=0;dropTarget=0;fillColor=none;points=[[0,0.5],[1,0.5]];portConstraint=eastwest;" parent="PKO88a7LwcqLftBzNjsi-42" vertex="1">
          <mxGeometry width="210" height="40" as="geometry" />
        </mxCell>
        <mxCell id="PKO88a7LwcqLftBzNjsi-44" value="BankAccount" style="shape=partialRectangle;html=1;whiteSpace=wrap;connectable=0;strokeColor=inherit;overflow=hidden;fillColor=none;top=0;left=0;bottom=0;right=0;pointerEvents=1;" parent="PKO88a7LwcqLftBzNjsi-43" vertex="1">
          <mxGeometry width="100" height="40" as="geometry">
            <mxRectangle width="100" height="40" as="alternateBounds" />
          </mxGeometry>
        </mxCell>
        <mxCell id="PKO88a7LwcqLftBzNjsi-46" value="SponsorshipRate" style="shape=partialRectangle;html=1;whiteSpace=wrap;connectable=0;strokeColor=inherit;overflow=hidden;fillColor=none;top=0;left=0;bottom=0;right=0;pointerEvents=1;" parent="PKO88a7LwcqLftBzNjsi-43" vertex="1">
          <mxGeometry x="100" width="110" height="40" as="geometry">
            <mxRectangle width="110" height="40" as="alternateBounds" />
          </mxGeometry>
        </mxCell>
        <mxCell id="PKO88a7LwcqLftBzNjsi-82" value="" style="group" parent="1" vertex="1" connectable="0">
          <mxGeometry x="1180" y="434" width="520" height="80" as="geometry" />
        </mxCell>
        <mxCell id="PKO88a7LwcqLftBzNjsi-57" value="" style="shape=table;startSize=0;container=1;collapsible=0;childLayout=tableLayout;" parent="PKO88a7LwcqLftBzNjsi-82" vertex="1">
          <mxGeometry width="280" height="40" as="geometry" />
        </mxCell>
        <mxCell id="PKO88a7LwcqLftBzNjsi-58" value="" style="shape=tableRow;horizontal=0;startSize=0;swimlaneHead=0;swimlaneBody=0;strokeColor=inherit;top=0;left=0;bottom=0;right=0;collapsible=0;dropTarget=0;fillColor=none;points=[[0,0.5],[1,0.5]];portConstraint=eastwest;" parent="PKO88a7LwcqLftBzNjsi-57" vertex="1">
          <mxGeometry width="280" height="40" as="geometry" />
        </mxCell>
        <mxCell id="PKO88a7LwcqLftBzNjsi-59" value="&lt;b&gt;Venue&lt;/b&gt;" style="shape=partialRectangle;html=1;whiteSpace=wrap;connectable=0;strokeColor=inherit;overflow=hidden;fillColor=none;top=0;left=0;bottom=0;right=0;pointerEvents=1;" parent="PKO88a7LwcqLftBzNjsi-58" vertex="1">
          <mxGeometry width="280" height="40" as="geometry">
            <mxRectangle width="280" height="40" as="alternateBounds" />
          </mxGeometry>
        </mxCell>
        <mxCell id="PKO88a7LwcqLftBzNjsi-60" value="" style="shape=table;startSize=0;container=1;collapsible=0;childLayout=tableLayout;" parent="PKO88a7LwcqLftBzNjsi-82" vertex="1">
          <mxGeometry y="40" width="280" height="40" as="geometry" />
        </mxCell>
        <mxCell id="PKO88a7LwcqLftBzNjsi-61" value="" style="shape=tableRow;horizontal=0;startSize=0;swimlaneHead=0;swimlaneBody=0;strokeColor=inherit;top=0;left=0;bottom=0;right=0;collapsible=0;dropTarget=0;fillColor=none;points=[[0,0.5],[1,0.5]];portConstraint=eastwest;" parent="PKO88a7LwcqLftBzNjsi-60" vertex="1">
          <mxGeometry width="280" height="40" as="geometry" />
        </mxCell>
        <mxCell id="PKO88a7LwcqLftBzNjsi-62" value="&lt;u&gt;VenueID&lt;/u&gt;" style="shape=partialRectangle;html=1;whiteSpace=wrap;connectable=0;strokeColor=inherit;overflow=hidden;fillColor=none;top=0;left=0;bottom=0;right=0;pointerEvents=1;" parent="PKO88a7LwcqLftBzNjsi-61" vertex="1">
          <mxGeometry width="80" height="40" as="geometry">
            <mxRectangle width="80" height="40" as="alternateBounds" />
          </mxGeometry>
        </mxCell>
        <mxCell id="PKO88a7LwcqLftBzNjsi-63" value="Address" style="shape=partialRectangle;html=1;whiteSpace=wrap;connectable=0;strokeColor=inherit;overflow=hidden;fillColor=none;top=0;left=0;bottom=0;right=0;pointerEvents=1;" parent="PKO88a7LwcqLftBzNjsi-61" vertex="1">
          <mxGeometry x="80" width="90" height="40" as="geometry">
            <mxRectangle width="90" height="40" as="alternateBounds" />
          </mxGeometry>
        </mxCell>
        <mxCell id="PKO88a7LwcqLftBzNjsi-70" value="NumberOfStages" style="shape=partialRectangle;html=1;whiteSpace=wrap;connectable=0;strokeColor=inherit;overflow=hidden;fillColor=none;top=0;left=0;bottom=0;right=0;pointerEvents=1;" parent="PKO88a7LwcqLftBzNjsi-61" vertex="1">
          <mxGeometry x="170" width="110" height="40" as="geometry">
            <mxRectangle width="110" height="40" as="alternateBounds" />
          </mxGeometry>
        </mxCell>
        <mxCell id="PKO88a7LwcqLftBzNjsi-87" value="" style="group" parent="PKO88a7LwcqLftBzNjsi-82" vertex="1" connectable="0">
          <mxGeometry x="320" width="160" height="80" as="geometry" />
        </mxCell>
        <mxCell id="PKO88a7LwcqLftBzNjsi-75" value="" style="shape=table;startSize=0;container=1;collapsible=0;childLayout=tableLayout;" parent="PKO88a7LwcqLftBzNjsi-87" vertex="1">
          <mxGeometry width="160" height="40" as="geometry" />
        </mxCell>
        <mxCell id="PKO88a7LwcqLftBzNjsi-76" value="" style="shape=tableRow;horizontal=0;startSize=0;swimlaneHead=0;swimlaneBody=0;strokeColor=inherit;top=0;left=0;bottom=0;right=0;collapsible=0;dropTarget=0;fillColor=none;points=[[0,0.5],[1,0.5]];portConstraint=eastwest;" parent="PKO88a7LwcqLftBzNjsi-75" vertex="1">
          <mxGeometry width="160" height="40" as="geometry" />
        </mxCell>
        <mxCell id="PKO88a7LwcqLftBzNjsi-77" value="&lt;b&gt;Facilities&lt;/b&gt;" style="shape=partialRectangle;html=1;whiteSpace=wrap;connectable=0;strokeColor=inherit;overflow=hidden;fillColor=none;top=0;left=0;bottom=0;right=0;pointerEvents=1;" parent="PKO88a7LwcqLftBzNjsi-76" vertex="1">
          <mxGeometry width="160" height="40" as="geometry">
            <mxRectangle width="160" height="40" as="alternateBounds" />
          </mxGeometry>
        </mxCell>
        <mxCell id="PKO88a7LwcqLftBzNjsi-78" value="" style="shape=table;startSize=0;container=1;collapsible=0;childLayout=tableLayout;" parent="PKO88a7LwcqLftBzNjsi-87" vertex="1">
          <mxGeometry y="40" width="160" height="40" as="geometry" />
        </mxCell>
        <mxCell id="PKO88a7LwcqLftBzNjsi-79" value="" style="shape=tableRow;horizontal=0;startSize=0;swimlaneHead=0;swimlaneBody=0;strokeColor=inherit;top=0;left=0;bottom=0;right=0;collapsible=0;dropTarget=0;fillColor=none;points=[[0,0.5],[1,0.5]];portConstraint=eastwest;" parent="PKO88a7LwcqLftBzNjsi-78" vertex="1">
          <mxGeometry width="160" height="40" as="geometry" />
        </mxCell>
        <mxCell id="PKO88a7LwcqLftBzNjsi-80" value="&lt;u&gt;VenueID&lt;/u&gt;" style="shape=partialRectangle;html=1;whiteSpace=wrap;connectable=0;strokeColor=inherit;overflow=hidden;fillColor=none;top=0;left=0;bottom=0;right=0;pointerEvents=1;" parent="PKO88a7LwcqLftBzNjsi-79" vertex="1">
          <mxGeometry width="80" height="40" as="geometry">
            <mxRectangle width="80" height="40" as="alternateBounds" />
          </mxGeometry>
        </mxCell>
        <mxCell id="PKO88a7LwcqLftBzNjsi-81" value="Facilities" style="shape=partialRectangle;html=1;whiteSpace=wrap;connectable=0;strokeColor=inherit;overflow=hidden;fillColor=none;top=0;left=0;bottom=0;right=0;pointerEvents=1;" parent="PKO88a7LwcqLftBzNjsi-79" vertex="1">
          <mxGeometry x="80" width="80" height="40" as="geometry">
            <mxRectangle width="80" height="40" as="alternateBounds" />
          </mxGeometry>
        </mxCell>
        <mxCell id="PKO88a7LwcqLftBzNjsi-86" value="" style="edgeStyle=segmentEdgeStyle;endArrow=classic;html=1;curved=0;rounded=0;endSize=8;startSize=8;sourcePerimeterSpacing=0;targetPerimeterSpacing=0;fontSize=12;exitX=0;exitY=0.5;exitDx=0;exitDy=0;" parent="PKO88a7LwcqLftBzNjsi-82" source="PKO88a7LwcqLftBzNjsi-79" target="PKO88a7LwcqLftBzNjsi-61" edge="1">
          <mxGeometry width="140" relative="1" as="geometry">
            <mxPoint x="270" y="-50" as="sourcePoint" />
            <mxPoint x="-10" y="60" as="targetPoint" />
            <Array as="points">
              <mxPoint x="300" y="60" />
              <mxPoint x="300" y="-20" />
              <mxPoint x="-20" y="-20" />
              <mxPoint x="-20" y="60" />
            </Array>
          </mxGeometry>
        </mxCell>
        <mxCell id="PKO88a7LwcqLftBzNjsi-96" value="" style="group" parent="1" vertex="1" connectable="0">
          <mxGeometry x="530" y="410" width="590" height="80" as="geometry" />
        </mxCell>
        <mxCell id="PKO88a7LwcqLftBzNjsi-88" value="" style="shape=table;startSize=0;container=1;collapsible=0;childLayout=tableLayout;" parent="PKO88a7LwcqLftBzNjsi-96" vertex="1">
          <mxGeometry x="38" width="552" height="40" as="geometry" />
        </mxCell>
        <mxCell id="PKO88a7LwcqLftBzNjsi-89" value="" style="shape=tableRow;horizontal=0;startSize=0;swimlaneHead=0;swimlaneBody=0;strokeColor=inherit;top=0;left=0;bottom=0;right=0;collapsible=0;dropTarget=0;fillColor=none;points=[[0,0.5],[1,0.5]];portConstraint=eastwest;" parent="PKO88a7LwcqLftBzNjsi-88" vertex="1">
          <mxGeometry width="552" height="40" as="geometry" />
        </mxCell>
        <mxCell id="PKO88a7LwcqLftBzNjsi-90" value="&lt;b&gt;Stage&lt;/b&gt;" style="shape=partialRectangle;html=1;whiteSpace=wrap;connectable=0;strokeColor=inherit;overflow=hidden;fillColor=none;top=0;left=0;bottom=0;right=0;pointerEvents=1;" parent="PKO88a7LwcqLftBzNjsi-89" vertex="1">
          <mxGeometry width="552" height="40" as="geometry">
            <mxRectangle width="552" height="40" as="alternateBounds" />
          </mxGeometry>
        </mxCell>
        <mxCell id="PKO88a7LwcqLftBzNjsi-91" value="" style="shape=table;startSize=0;container=1;collapsible=0;childLayout=tableLayout;" parent="PKO88a7LwcqLftBzNjsi-96" vertex="1">
          <mxGeometry x="38" y="40" width="552" height="40" as="geometry" />
        </mxCell>
        <mxCell id="PKO88a7LwcqLftBzNjsi-92" value="" style="shape=tableRow;horizontal=0;startSize=0;swimlaneHead=0;swimlaneBody=0;strokeColor=inherit;top=0;left=0;bottom=0;right=0;collapsible=0;dropTarget=0;fillColor=none;points=[[0,0.5],[1,0.5]];portConstraint=eastwest;" parent="PKO88a7LwcqLftBzNjsi-91" vertex="1">
          <mxGeometry width="552" height="40" as="geometry" />
        </mxCell>
        <mxCell id="PKO88a7LwcqLftBzNjsi-93" value="&lt;u&gt;StageID&lt;/u&gt;" style="shape=partialRectangle;html=1;whiteSpace=wrap;connectable=0;strokeColor=inherit;overflow=hidden;fillColor=none;top=0;left=0;bottom=0;right=0;pointerEvents=1;" parent="PKO88a7LwcqLftBzNjsi-92" vertex="1">
          <mxGeometry width="85" height="40" as="geometry">
            <mxRectangle width="85" height="40" as="alternateBounds" />
          </mxGeometry>
        </mxCell>
        <mxCell id="ISqjivV7O6Bus1pjdpT5-28" value="FestivalGoerID" style="shape=partialRectangle;html=1;whiteSpace=wrap;connectable=0;strokeColor=inherit;overflow=hidden;fillColor=none;top=0;left=0;bottom=0;right=0;pointerEvents=1;" vertex="1" parent="PKO88a7LwcqLftBzNjsi-92">
          <mxGeometry x="85" width="111" height="40" as="geometry">
            <mxRectangle width="111" height="40" as="alternateBounds" />
          </mxGeometry>
        </mxCell>
        <mxCell id="PKO88a7LwcqLftBzNjsi-94" value="Capacity" style="shape=partialRectangle;html=1;whiteSpace=wrap;connectable=0;strokeColor=inherit;overflow=hidden;fillColor=none;top=0;left=0;bottom=0;right=0;pointerEvents=1;" parent="PKO88a7LwcqLftBzNjsi-92" vertex="1">
          <mxGeometry x="196" width="70" height="40" as="geometry">
            <mxRectangle width="70" height="40" as="alternateBounds" />
          </mxGeometry>
        </mxCell>
        <mxCell id="PKO88a7LwcqLftBzNjsi-95" value="Area" style="shape=partialRectangle;html=1;whiteSpace=wrap;connectable=0;strokeColor=inherit;overflow=hidden;fillColor=none;top=0;left=0;bottom=0;right=0;pointerEvents=1;" parent="PKO88a7LwcqLftBzNjsi-92" vertex="1">
          <mxGeometry x="266" width="61" height="40" as="geometry">
            <mxRectangle width="61" height="40" as="alternateBounds" />
          </mxGeometry>
        </mxCell>
        <mxCell id="ISqjivV7O6Bus1pjdpT5-16" value="Zone" style="shape=partialRectangle;html=1;whiteSpace=wrap;connectable=0;strokeColor=inherit;overflow=hidden;fillColor=none;top=0;left=0;bottom=0;right=0;pointerEvents=1;" vertex="1" parent="PKO88a7LwcqLftBzNjsi-92">
          <mxGeometry x="327" width="50" height="40" as="geometry">
            <mxRectangle width="50" height="40" as="alternateBounds" />
          </mxGeometry>
        </mxCell>
        <mxCell id="ISqjivV7O6Bus1pjdpT5-21" value="&lt;u&gt;VenueID&lt;/u&gt;" style="shape=partialRectangle;html=1;whiteSpace=wrap;connectable=0;strokeColor=inherit;overflow=hidden;fillColor=none;top=0;left=0;bottom=0;right=0;pointerEvents=1;" vertex="1" parent="PKO88a7LwcqLftBzNjsi-92">
          <mxGeometry x="377" width="88" height="40" as="geometry">
            <mxRectangle width="88" height="40" as="alternateBounds" />
          </mxGeometry>
        </mxCell>
        <mxCell id="ISqjivV7O6Bus1pjdpT5-36" value="FestivalStaffID" style="shape=partialRectangle;html=1;whiteSpace=wrap;connectable=0;strokeColor=inherit;overflow=hidden;fillColor=none;top=0;left=0;bottom=0;right=0;pointerEvents=1;" vertex="1" parent="PKO88a7LwcqLftBzNjsi-92">
          <mxGeometry x="465" width="87" height="40" as="geometry">
            <mxRectangle width="87" height="40" as="alternateBounds" />
          </mxGeometry>
        </mxCell>
        <mxCell id="1OvbaB2SJktq4wwTJ-ky-1" value="" style="group" parent="1" vertex="1" connectable="0">
          <mxGeometry x="366" y="530" width="400" height="80" as="geometry" />
        </mxCell>
        <mxCell id="1OvbaB2SJktq4wwTJ-ky-2" value="" style="shape=table;startSize=0;container=1;collapsible=0;childLayout=tableLayout;" parent="1OvbaB2SJktq4wwTJ-ky-1" vertex="1">
          <mxGeometry y="0.5" width="400" height="40" as="geometry" />
        </mxCell>
        <mxCell id="1OvbaB2SJktq4wwTJ-ky-3" value="" style="shape=tableRow;horizontal=0;startSize=0;swimlaneHead=0;swimlaneBody=0;strokeColor=inherit;top=0;left=0;bottom=0;right=0;collapsible=0;dropTarget=0;fillColor=none;points=[[0,0.5],[1,0.5]];portConstraint=eastwest;" parent="1OvbaB2SJktq4wwTJ-ky-2" vertex="1">
          <mxGeometry width="400" height="40" as="geometry" />
        </mxCell>
        <mxCell id="1OvbaB2SJktq4wwTJ-ky-4" value="&lt;b&gt;PerformanceSlot&lt;/b&gt;" style="shape=partialRectangle;html=1;whiteSpace=wrap;connectable=0;strokeColor=inherit;overflow=hidden;fillColor=none;top=0;left=0;bottom=0;right=0;pointerEvents=1;" parent="1OvbaB2SJktq4wwTJ-ky-3" vertex="1">
          <mxGeometry width="400" height="40" as="geometry">
            <mxRectangle width="400" height="40" as="alternateBounds" />
          </mxGeometry>
        </mxCell>
        <mxCell id="1OvbaB2SJktq4wwTJ-ky-5" value="" style="shape=table;startSize=0;container=1;collapsible=0;childLayout=tableLayout;" parent="1OvbaB2SJktq4wwTJ-ky-1" vertex="1">
          <mxGeometry y="40" width="190" height="40" as="geometry" />
        </mxCell>
        <mxCell id="1OvbaB2SJktq4wwTJ-ky-6" value="" style="shape=tableRow;horizontal=0;startSize=0;swimlaneHead=0;swimlaneBody=0;strokeColor=inherit;top=0;left=0;bottom=0;right=0;collapsible=0;dropTarget=0;fillColor=none;points=[[0,0.5],[1,0.5]];portConstraint=eastwest;" parent="1OvbaB2SJktq4wwTJ-ky-5" vertex="1">
          <mxGeometry width="190" height="40" as="geometry" />
        </mxCell>
        <mxCell id="1OvbaB2SJktq4wwTJ-ky-7" value="&lt;u&gt;SlotID&lt;/u&gt;" style="shape=partialRectangle;html=1;whiteSpace=wrap;connectable=0;strokeColor=#9673a6;overflow=hidden;fillColor=#e1d5e7;top=0;left=0;bottom=0;right=0;pointerEvents=1;" parent="1OvbaB2SJktq4wwTJ-ky-6" vertex="1">
          <mxGeometry width="100" height="40" as="geometry">
            <mxRectangle width="100" height="40" as="alternateBounds" />
          </mxGeometry>
        </mxCell>
        <mxCell id="1OvbaB2SJktq4wwTJ-ky-8" value="StartDateTime" style="shape=partialRectangle;html=1;whiteSpace=wrap;connectable=0;strokeColor=inherit;overflow=hidden;fillColor=none;top=0;left=0;bottom=0;right=0;pointerEvents=1;" parent="1OvbaB2SJktq4wwTJ-ky-6" vertex="1">
          <mxGeometry x="100" width="90" height="40" as="geometry">
            <mxRectangle width="90" height="40" as="alternateBounds" />
          </mxGeometry>
        </mxCell>
        <mxCell id="1OvbaB2SJktq4wwTJ-ky-9" value="" style="shape=table;startSize=0;container=1;collapsible=0;childLayout=tableLayout;" parent="1OvbaB2SJktq4wwTJ-ky-1" vertex="1">
          <mxGeometry x="190" y="40" width="210" height="40" as="geometry" />
        </mxCell>
        <mxCell id="1OvbaB2SJktq4wwTJ-ky-10" value="" style="shape=tableRow;horizontal=0;startSize=0;swimlaneHead=0;swimlaneBody=0;strokeColor=inherit;top=0;left=0;bottom=0;right=0;collapsible=0;dropTarget=0;fillColor=none;points=[[0,0.5],[1,0.5]];portConstraint=eastwest;" parent="1OvbaB2SJktq4wwTJ-ky-9" vertex="1">
          <mxGeometry width="210" height="40" as="geometry" />
        </mxCell>
        <mxCell id="1OvbaB2SJktq4wwTJ-ky-11" value="EndDateTime" style="shape=partialRectangle;html=1;whiteSpace=wrap;connectable=0;strokeColor=inherit;overflow=hidden;fillColor=none;top=0;left=0;bottom=0;right=0;pointerEvents=1;" parent="1OvbaB2SJktq4wwTJ-ky-10" vertex="1">
          <mxGeometry width="100" height="40" as="geometry">
            <mxRectangle width="100" height="40" as="alternateBounds" />
          </mxGeometry>
        </mxCell>
        <mxCell id="1OvbaB2SJktq4wwTJ-ky-12" value="PerformanceFee" style="shape=partialRectangle;html=1;whiteSpace=wrap;connectable=0;strokeColor=inherit;overflow=hidden;fillColor=none;top=0;left=0;bottom=0;right=0;pointerEvents=1;" parent="1OvbaB2SJktq4wwTJ-ky-10" vertex="1">
          <mxGeometry x="100" width="110" height="40" as="geometry">
            <mxRectangle width="110" height="40" as="alternateBounds" />
          </mxGeometry>
        </mxCell>
        <mxCell id="1OvbaB2SJktq4wwTJ-ky-23" value="" style="group" parent="1" vertex="1" connectable="0">
          <mxGeometry x="638" y="260" width="420" height="80" as="geometry" />
        </mxCell>
        <mxCell id="1OvbaB2SJktq4wwTJ-ky-13" value="" style="shape=table;startSize=0;container=1;collapsible=0;childLayout=tableLayout;" parent="1OvbaB2SJktq4wwTJ-ky-23" vertex="1">
          <mxGeometry width="420" height="40" as="geometry" />
        </mxCell>
        <mxCell id="1OvbaB2SJktq4wwTJ-ky-14" value="" style="shape=tableRow;horizontal=0;startSize=0;swimlaneHead=0;swimlaneBody=0;strokeColor=inherit;top=0;left=0;bottom=0;right=0;collapsible=0;dropTarget=0;fillColor=none;points=[[0,0.5],[1,0.5]];portConstraint=eastwest;" parent="1OvbaB2SJktq4wwTJ-ky-13" vertex="1">
          <mxGeometry width="420" height="40" as="geometry" />
        </mxCell>
        <mxCell id="1OvbaB2SJktq4wwTJ-ky-15" value="&lt;b&gt;sponsors&lt;/b&gt;" style="shape=partialRectangle;html=1;whiteSpace=wrap;connectable=0;strokeColor=inherit;overflow=hidden;fillColor=none;top=0;left=0;bottom=0;right=0;pointerEvents=1;" parent="1OvbaB2SJktq4wwTJ-ky-14" vertex="1">
          <mxGeometry width="420" height="40" as="geometry">
            <mxRectangle width="420" height="40" as="alternateBounds" />
          </mxGeometry>
        </mxCell>
        <mxCell id="1OvbaB2SJktq4wwTJ-ky-16" value="" style="shape=table;startSize=0;container=1;collapsible=0;childLayout=tableLayout;" parent="1OvbaB2SJktq4wwTJ-ky-23" vertex="1">
          <mxGeometry y="40" width="420" height="40" as="geometry" />
        </mxCell>
        <mxCell id="1OvbaB2SJktq4wwTJ-ky-17" value="" style="shape=tableRow;horizontal=0;startSize=0;swimlaneHead=0;swimlaneBody=0;strokeColor=inherit;top=0;left=0;bottom=0;right=0;collapsible=0;dropTarget=0;fillColor=none;points=[[0,0.5],[1,0.5]];portConstraint=eastwest;" parent="1OvbaB2SJktq4wwTJ-ky-16" vertex="1">
          <mxGeometry width="420" height="40" as="geometry" />
        </mxCell>
        <mxCell id="1OvbaB2SJktq4wwTJ-ky-22" value="&lt;u&gt;FestivalGoerID&lt;/u&gt;" style="shape=partialRectangle;html=1;whiteSpace=wrap;connectable=0;strokeColor=inherit;overflow=hidden;fillColor=none;top=0;left=0;bottom=0;right=0;pointerEvents=1;" parent="1OvbaB2SJktq4wwTJ-ky-17" vertex="1">
          <mxGeometry width="110" height="40" as="geometry">
            <mxRectangle width="110" height="40" as="alternateBounds" />
          </mxGeometry>
        </mxCell>
        <mxCell id="1OvbaB2SJktq4wwTJ-ky-21" value="&lt;u&gt;StageID&lt;/u&gt;" style="shape=partialRectangle;html=1;whiteSpace=wrap;connectable=0;strokeColor=inherit;overflow=hidden;fillColor=none;top=0;left=0;bottom=0;right=0;pointerEvents=1;" parent="1OvbaB2SJktq4wwTJ-ky-17" vertex="1">
          <mxGeometry x="110" width="60" height="40" as="geometry">
            <mxRectangle width="60" height="40" as="alternateBounds" />
          </mxGeometry>
        </mxCell>
        <mxCell id="1OvbaB2SJktq4wwTJ-ky-18" value="SponsorshipAmount" style="shape=partialRectangle;html=1;whiteSpace=wrap;connectable=0;strokeColor=inherit;overflow=hidden;fillColor=none;top=0;left=0;bottom=0;right=0;pointerEvents=1;" parent="1OvbaB2SJktq4wwTJ-ky-17" vertex="1">
          <mxGeometry x="170" width="120" height="40" as="geometry">
            <mxRectangle width="120" height="40" as="alternateBounds" />
          </mxGeometry>
        </mxCell>
        <mxCell id="1OvbaB2SJktq4wwTJ-ky-19" value="StartDate" style="shape=partialRectangle;html=1;whiteSpace=wrap;connectable=0;strokeColor=inherit;overflow=hidden;fillColor=none;top=0;left=0;bottom=0;right=0;pointerEvents=1;" parent="1OvbaB2SJktq4wwTJ-ky-17" vertex="1">
          <mxGeometry x="290" width="70" height="40" as="geometry">
            <mxRectangle width="70" height="40" as="alternateBounds" />
          </mxGeometry>
        </mxCell>
        <mxCell id="1OvbaB2SJktq4wwTJ-ky-20" value="EndDate" style="shape=partialRectangle;html=1;whiteSpace=wrap;connectable=0;strokeColor=inherit;overflow=hidden;fillColor=none;top=0;left=0;bottom=0;right=0;pointerEvents=1;" parent="1OvbaB2SJktq4wwTJ-ky-17" vertex="1">
          <mxGeometry x="360" width="60" height="40" as="geometry">
            <mxRectangle width="60" height="40" as="alternateBounds" />
          </mxGeometry>
        </mxCell>
        <mxCell id="ISqjivV7O6Bus1pjdpT5-26" value="" style="edgeStyle=segmentEdgeStyle;endArrow=classic;html=1;curved=0;rounded=0;endSize=8;startSize=8;sourcePerimeterSpacing=0;targetPerimeterSpacing=0;fontSize=12;exitX=0.137;exitY=1.013;exitDx=0;exitDy=0;exitPerimeter=0;" edge="1" parent="1OvbaB2SJktq4wwTJ-ky-23" target="PKO88a7LwcqLftBzNjsi-92">
          <mxGeometry width="140" relative="1" as="geometry">
            <mxPoint x="140" y="80" as="sourcePoint" />
            <mxPoint x="670" y="221" as="targetPoint" />
            <Array as="points">
              <mxPoint x="140" y="120" />
              <mxPoint x="-18" y="120" />
            </Array>
          </mxGeometry>
        </mxCell>
        <mxCell id="1OvbaB2SJktq4wwTJ-ky-77" value="" style="edgeStyle=segmentEdgeStyle;endArrow=classic;html=1;curved=0;rounded=0;endSize=8;startSize=8;sourcePerimeterSpacing=0;targetPerimeterSpacing=0;fontSize=12;entryX=0;entryY=0.5;entryDx=0;entryDy=0;" parent="1" edge="1">
          <mxGeometry width="140" relative="1" as="geometry">
            <mxPoint x="190" y="320" as="sourcePoint" />
            <mxPoint x="190" y="200" as="targetPoint" />
            <Array as="points">
              <mxPoint x="190" y="310" />
              <mxPoint x="170" y="310" />
              <mxPoint x="170" y="200" />
            </Array>
          </mxGeometry>
        </mxCell>
        <mxCell id="1OvbaB2SJktq4wwTJ-ky-78" value="" style="edgeStyle=segmentEdgeStyle;endArrow=classic;html=1;curved=0;rounded=0;endSize=8;startSize=8;sourcePerimeterSpacing=0;targetPerimeterSpacing=0;fontSize=12;exitX=0;exitY=0.5;exitDx=0;exitDy=0;" parent="1" source="PKO88a7LwcqLftBzNjsi-52" target="PKO88a7LwcqLftBzNjsi-28" edge="1">
          <mxGeometry width="140" relative="1" as="geometry">
            <mxPoint x="190" y="460" as="sourcePoint" />
            <mxPoint x="190" y="220" as="targetPoint" />
            <Array as="points">
              <mxPoint x="190" y="440" />
              <mxPoint x="150" y="440" />
              <mxPoint x="150" y="210" />
            </Array>
          </mxGeometry>
        </mxCell>
        <mxCell id="1OvbaB2SJktq4wwTJ-ky-79" value="" style="group" parent="1" vertex="1" connectable="0">
          <mxGeometry x="670" y="140" width="280" height="80" as="geometry" />
        </mxCell>
        <mxCell id="1OvbaB2SJktq4wwTJ-ky-24" value="" style="shape=table;startSize=0;container=1;collapsible=0;childLayout=tableLayout;" parent="1OvbaB2SJktq4wwTJ-ky-79" vertex="1">
          <mxGeometry width="280" height="40" as="geometry" />
        </mxCell>
        <mxCell id="1OvbaB2SJktq4wwTJ-ky-25" value="" style="shape=tableRow;horizontal=0;startSize=0;swimlaneHead=0;swimlaneBody=0;strokeColor=inherit;top=0;left=0;bottom=0;right=0;collapsible=0;dropTarget=0;fillColor=none;points=[[0,0.5],[1,0.5]];portConstraint=eastwest;" parent="1OvbaB2SJktq4wwTJ-ky-24" vertex="1">
          <mxGeometry width="280" height="40" as="geometry" />
        </mxCell>
        <mxCell id="1OvbaB2SJktq4wwTJ-ky-26" value="&lt;b&gt;contacts&lt;/b&gt;" style="shape=partialRectangle;html=1;whiteSpace=wrap;connectable=0;strokeColor=inherit;overflow=hidden;fillColor=none;top=0;left=0;bottom=0;right=0;pointerEvents=1;" parent="1OvbaB2SJktq4wwTJ-ky-25" vertex="1">
          <mxGeometry width="280" height="40" as="geometry">
            <mxRectangle width="280" height="40" as="alternateBounds" />
          </mxGeometry>
        </mxCell>
        <mxCell id="1OvbaB2SJktq4wwTJ-ky-60" value="" style="group" parent="1OvbaB2SJktq4wwTJ-ky-79" vertex="1" connectable="0">
          <mxGeometry x="60" y="40" width="220" height="40" as="geometry" />
        </mxCell>
        <mxCell id="1OvbaB2SJktq4wwTJ-ky-57" value="" style="shape=table;startSize=0;container=1;collapsible=0;childLayout=tableLayout;" parent="1OvbaB2SJktq4wwTJ-ky-60" vertex="1">
          <mxGeometry x="-60" width="280" height="40" as="geometry" />
        </mxCell>
        <mxCell id="1OvbaB2SJktq4wwTJ-ky-58" value="" style="shape=tableRow;horizontal=0;startSize=0;swimlaneHead=0;swimlaneBody=0;strokeColor=inherit;top=0;left=0;bottom=0;right=0;collapsible=0;dropTarget=0;fillColor=none;points=[[0,0.5],[1,0.5]];portConstraint=eastwest;" parent="1OvbaB2SJktq4wwTJ-ky-57" vertex="1">
          <mxGeometry width="280" height="40" as="geometry" />
        </mxCell>
        <mxCell id="1OvbaB2SJktq4wwTJ-ky-59" value="&lt;u&gt;FestivalGoerID&lt;/u&gt;" style="shape=partialRectangle;html=1;whiteSpace=wrap;connectable=0;strokeColor=inherit;overflow=hidden;fillColor=none;top=0;left=0;bottom=0;right=0;pointerEvents=1;" parent="1OvbaB2SJktq4wwTJ-ky-58" vertex="1">
          <mxGeometry width="84" height="40" as="geometry">
            <mxRectangle width="84" height="40" as="alternateBounds" />
          </mxGeometry>
        </mxCell>
        <mxCell id="1OvbaB2SJktq4wwTJ-ky-65" value="&lt;u&gt;FestivalStaffID&lt;/u&gt;" style="shape=partialRectangle;html=1;whiteSpace=wrap;connectable=0;strokeColor=inherit;overflow=hidden;fillColor=none;top=0;left=0;bottom=0;right=0;pointerEvents=1;" parent="1OvbaB2SJktq4wwTJ-ky-58" vertex="1">
          <mxGeometry x="84" width="86" height="40" as="geometry">
            <mxRectangle width="86" height="40" as="alternateBounds" />
          </mxGeometry>
        </mxCell>
        <mxCell id="1OvbaB2SJktq4wwTJ-ky-66" value="LatestContactDate" style="shape=partialRectangle;html=1;whiteSpace=wrap;connectable=0;strokeColor=inherit;overflow=hidden;fillColor=none;top=0;left=0;bottom=0;right=0;pointerEvents=1;" parent="1OvbaB2SJktq4wwTJ-ky-58" vertex="1">
          <mxGeometry x="170" width="110" height="40" as="geometry">
            <mxRectangle width="110" height="40" as="alternateBounds" />
          </mxGeometry>
        </mxCell>
        <mxCell id="PKO88a7LwcqLftBzNjsi-108" value="" style="group" parent="1" vertex="1" connectable="0">
          <mxGeometry x="1010" y="145" width="520" height="80" as="geometry" />
        </mxCell>
        <mxCell id="PKO88a7LwcqLftBzNjsi-97" value="" style="shape=table;startSize=0;container=1;collapsible=0;childLayout=tableLayout;" parent="PKO88a7LwcqLftBzNjsi-108" vertex="1">
          <mxGeometry width="520" height="40" as="geometry" />
        </mxCell>
        <mxCell id="PKO88a7LwcqLftBzNjsi-98" value="" style="shape=tableRow;horizontal=0;startSize=0;swimlaneHead=0;swimlaneBody=0;strokeColor=inherit;top=0;left=0;bottom=0;right=0;collapsible=0;dropTarget=0;fillColor=none;points=[[0,0.5],[1,0.5]];portConstraint=eastwest;" parent="PKO88a7LwcqLftBzNjsi-97" vertex="1">
          <mxGeometry width="520" height="40" as="geometry" />
        </mxCell>
        <mxCell id="PKO88a7LwcqLftBzNjsi-99" value="&lt;b&gt;FestivalStaff&lt;/b&gt;" style="shape=partialRectangle;html=1;whiteSpace=wrap;connectable=0;strokeColor=inherit;overflow=hidden;fillColor=none;top=0;left=0;bottom=0;right=0;pointerEvents=1;" parent="PKO88a7LwcqLftBzNjsi-98" vertex="1">
          <mxGeometry width="520" height="40" as="geometry">
            <mxRectangle width="520" height="40" as="alternateBounds" />
          </mxGeometry>
        </mxCell>
        <mxCell id="PKO88a7LwcqLftBzNjsi-100" value="" style="shape=table;startSize=0;container=1;collapsible=0;childLayout=tableLayout;" parent="PKO88a7LwcqLftBzNjsi-108" vertex="1">
          <mxGeometry y="40" width="520" height="40" as="geometry" />
        </mxCell>
        <mxCell id="PKO88a7LwcqLftBzNjsi-101" value="" style="shape=tableRow;horizontal=0;startSize=0;swimlaneHead=0;swimlaneBody=0;strokeColor=inherit;top=0;left=0;bottom=0;right=0;collapsible=0;dropTarget=0;fillColor=none;points=[[0,0.5],[1,0.5]];portConstraint=eastwest;" parent="PKO88a7LwcqLftBzNjsi-100" vertex="1">
          <mxGeometry width="520" height="40" as="geometry" />
        </mxCell>
        <mxCell id="PKO88a7LwcqLftBzNjsi-102" value="&lt;u&gt;FestivalStaffID&lt;/u&gt;" style="shape=partialRectangle;html=1;whiteSpace=wrap;connectable=0;strokeColor=inherit;overflow=hidden;fillColor=none;top=0;left=0;bottom=0;right=0;pointerEvents=1;" parent="PKO88a7LwcqLftBzNjsi-101" vertex="1">
          <mxGeometry width="104" height="40" as="geometry">
            <mxRectangle width="104" height="40" as="alternateBounds" />
          </mxGeometry>
        </mxCell>
        <mxCell id="PKO88a7LwcqLftBzNjsi-103" value="FSMailAddress" style="shape=partialRectangle;html=1;whiteSpace=wrap;connectable=0;strokeColor=inherit;overflow=hidden;fillColor=none;top=0;left=0;bottom=0;right=0;pointerEvents=1;" parent="PKO88a7LwcqLftBzNjsi-101" vertex="1">
          <mxGeometry x="104" width="104" height="40" as="geometry">
            <mxRectangle width="104" height="40" as="alternateBounds" />
          </mxGeometry>
        </mxCell>
        <mxCell id="PKO88a7LwcqLftBzNjsi-104" value="FSFirstName" style="shape=partialRectangle;html=1;whiteSpace=wrap;connectable=0;strokeColor=inherit;overflow=hidden;fillColor=none;top=0;left=0;bottom=0;right=0;pointerEvents=1;" parent="PKO88a7LwcqLftBzNjsi-101" vertex="1">
          <mxGeometry x="208" width="117" height="40" as="geometry">
            <mxRectangle width="117" height="40" as="alternateBounds" />
          </mxGeometry>
        </mxCell>
        <mxCell id="PKO88a7LwcqLftBzNjsi-105" value="&lt;div&gt;FSLastName&lt;/div&gt;" style="shape=partialRectangle;html=1;whiteSpace=wrap;connectable=0;strokeColor=inherit;overflow=hidden;fillColor=none;top=0;left=0;bottom=0;right=0;pointerEvents=1;" parent="PKO88a7LwcqLftBzNjsi-101" vertex="1">
          <mxGeometry x="325" width="103" height="40" as="geometry">
            <mxRectangle width="103" height="40" as="alternateBounds" />
          </mxGeometry>
        </mxCell>
        <mxCell id="PKO88a7LwcqLftBzNjsi-106" value="FSPhone" style="shape=partialRectangle;html=1;whiteSpace=wrap;connectable=0;strokeColor=inherit;overflow=hidden;fillColor=none;top=0;left=0;bottom=0;right=0;pointerEvents=1;" parent="PKO88a7LwcqLftBzNjsi-101" vertex="1">
          <mxGeometry x="428" width="92" height="40" as="geometry">
            <mxRectangle width="92" height="40" as="alternateBounds" />
          </mxGeometry>
        </mxCell>
        <mxCell id="PKO88a7LwcqLftBzNjsi-127" value="" style="group" parent="1" vertex="1" connectable="0">
          <mxGeometry x="1130" y="260" width="205" height="80" as="geometry" />
        </mxCell>
        <mxCell id="PKO88a7LwcqLftBzNjsi-118" value="" style="shape=table;startSize=0;container=1;collapsible=0;childLayout=tableLayout;" parent="PKO88a7LwcqLftBzNjsi-127" vertex="1">
          <mxGeometry width="205" height="40" as="geometry" />
        </mxCell>
        <mxCell id="PKO88a7LwcqLftBzNjsi-119" value="" style="shape=tableRow;horizontal=0;startSize=0;swimlaneHead=0;swimlaneBody=0;strokeColor=inherit;top=0;left=0;bottom=0;right=0;collapsible=0;dropTarget=0;fillColor=none;points=[[0,0.5],[1,0.5]];portConstraint=eastwest;" parent="PKO88a7LwcqLftBzNjsi-118" vertex="1">
          <mxGeometry width="205" height="40" as="geometry" />
        </mxCell>
        <mxCell id="PKO88a7LwcqLftBzNjsi-120" value="&lt;b&gt;DaysWorking&lt;/b&gt;" style="shape=partialRectangle;html=1;whiteSpace=wrap;connectable=0;strokeColor=inherit;overflow=hidden;fillColor=none;top=0;left=0;bottom=0;right=0;pointerEvents=1;" parent="PKO88a7LwcqLftBzNjsi-119" vertex="1">
          <mxGeometry width="205" height="40" as="geometry">
            <mxRectangle width="205" height="40" as="alternateBounds" />
          </mxGeometry>
        </mxCell>
        <mxCell id="PKO88a7LwcqLftBzNjsi-121" value="" style="shape=table;startSize=0;container=1;collapsible=0;childLayout=tableLayout;" parent="PKO88a7LwcqLftBzNjsi-127" vertex="1">
          <mxGeometry y="40" width="205" height="40" as="geometry" />
        </mxCell>
        <mxCell id="PKO88a7LwcqLftBzNjsi-122" value="" style="shape=tableRow;horizontal=0;startSize=0;swimlaneHead=0;swimlaneBody=0;strokeColor=inherit;top=0;left=0;bottom=0;right=0;collapsible=0;dropTarget=0;fillColor=none;points=[[0,0.5],[1,0.5]];portConstraint=eastwest;" parent="PKO88a7LwcqLftBzNjsi-121" vertex="1">
          <mxGeometry width="205" height="40" as="geometry" />
        </mxCell>
        <mxCell id="PKO88a7LwcqLftBzNjsi-123" value="&lt;u&gt;FestivalStaffID&lt;/u&gt;" style="shape=partialRectangle;html=1;whiteSpace=wrap;connectable=0;strokeColor=inherit;overflow=hidden;fillColor=none;top=0;left=0;bottom=0;right=0;pointerEvents=1;" parent="PKO88a7LwcqLftBzNjsi-122" vertex="1">
          <mxGeometry width="103" height="40" as="geometry">
            <mxRectangle width="103" height="40" as="alternateBounds" />
          </mxGeometry>
        </mxCell>
        <mxCell id="PKO88a7LwcqLftBzNjsi-124" value="&lt;u&gt;DaysWorking&lt;/u&gt;" style="shape=partialRectangle;html=1;whiteSpace=wrap;connectable=0;strokeColor=inherit;overflow=hidden;fillColor=none;top=0;left=0;bottom=0;right=0;pointerEvents=1;" parent="PKO88a7LwcqLftBzNjsi-122" vertex="1">
          <mxGeometry x="103" width="102" height="40" as="geometry">
            <mxRectangle width="102" height="40" as="alternateBounds" />
          </mxGeometry>
        </mxCell>
        <mxCell id="1OvbaB2SJktq4wwTJ-ky-83" value="" style="edgeStyle=segmentEdgeStyle;endArrow=classic;html=1;curved=0;rounded=0;endSize=8;startSize=8;sourcePerimeterSpacing=0;targetPerimeterSpacing=0;fontSize=12;exitX=0.137;exitY=1.013;exitDx=0;exitDy=0;exitPerimeter=0;entryX=0.414;entryY=-0.075;entryDx=0;entryDy=0;entryPerimeter=0;" parent="1" source="1OvbaB2SJktq4wwTJ-ky-25" target="PKO88a7LwcqLftBzNjsi-15" edge="1">
          <mxGeometry width="140" relative="1" as="geometry">
            <mxPoint x="750" y="130" as="sourcePoint" />
            <mxPoint x="360" y="120" as="targetPoint" />
            <Array as="points">
              <mxPoint x="708" y="120" />
              <mxPoint x="372" y="120" />
            </Array>
          </mxGeometry>
        </mxCell>
        <mxCell id="1OvbaB2SJktq4wwTJ-ky-84" value="" style="edgeStyle=segmentEdgeStyle;endArrow=classic;html=1;curved=0;rounded=0;endSize=8;startSize=8;sourcePerimeterSpacing=0;targetPerimeterSpacing=0;fontSize=12;exitX=0.137;exitY=1.013;exitDx=0;exitDy=0;exitPerimeter=0;" parent="1" target="PKO88a7LwcqLftBzNjsi-98" edge="1">
          <mxGeometry width="140" relative="1" as="geometry">
            <mxPoint x="806" y="181" as="sourcePoint" />
            <mxPoint x="1000" y="130" as="targetPoint" />
            <Array as="points">
              <mxPoint x="806" y="120" />
              <mxPoint x="1230" y="120" />
            </Array>
          </mxGeometry>
        </mxCell>
        <mxCell id="ISqjivV7O6Bus1pjdpT5-1" value="" style="shape=table;startSize=0;container=1;collapsible=0;childLayout=tableLayout;fillColor=#f8cecc;strokeColor=#b85450;" vertex="1" parent="1">
          <mxGeometry x="1510" y="268" width="60" height="40" as="geometry" />
        </mxCell>
        <mxCell id="ISqjivV7O6Bus1pjdpT5-2" value="" style="shape=tableRow;horizontal=0;startSize=0;swimlaneHead=0;swimlaneBody=0;strokeColor=#b85450;top=0;left=0;bottom=0;right=0;collapsible=0;dropTarget=0;fillColor=#f8cecc;points=[[0,0.5],[1,0.5]];portConstraint=eastwest;" vertex="1" parent="ISqjivV7O6Bus1pjdpT5-1">
          <mxGeometry width="60" height="40" as="geometry" />
        </mxCell>
        <mxCell id="ISqjivV7O6Bus1pjdpT5-3" value="&lt;b&gt;assist&lt;/b&gt;" style="shape=partialRectangle;html=1;whiteSpace=wrap;connectable=0;strokeColor=#b85450;overflow=hidden;fillColor=#f8cecc;top=0;left=0;bottom=0;right=0;pointerEvents=1;" vertex="1" parent="ISqjivV7O6Bus1pjdpT5-2">
          <mxGeometry width="60" height="40" as="geometry">
            <mxRectangle width="60" height="40" as="alternateBounds" />
          </mxGeometry>
        </mxCell>
        <mxCell id="PKO88a7LwcqLftBzNjsi-48" value="" style="shape=table;startSize=0;container=1;collapsible=0;childLayout=tableLayout;" parent="1" vertex="1">
          <mxGeometry x="190" y="390" width="330" height="40" as="geometry" />
        </mxCell>
        <mxCell id="PKO88a7LwcqLftBzNjsi-49" value="" style="shape=tableRow;horizontal=0;startSize=0;swimlaneHead=0;swimlaneBody=0;strokeColor=inherit;top=0;left=0;bottom=0;right=0;collapsible=0;dropTarget=0;fillColor=none;points=[[0,0.5],[1,0.5]];portConstraint=eastwest;" parent="PKO88a7LwcqLftBzNjsi-48" vertex="1">
          <mxGeometry width="330" height="40" as="geometry" />
        </mxCell>
        <mxCell id="PKO88a7LwcqLftBzNjsi-50" value="&lt;b&gt;TicketHolder&lt;/b&gt;" style="shape=partialRectangle;html=1;whiteSpace=wrap;connectable=0;strokeColor=inherit;overflow=hidden;fillColor=none;top=0;left=0;bottom=0;right=0;pointerEvents=1;" parent="PKO88a7LwcqLftBzNjsi-49" vertex="1">
          <mxGeometry width="330" height="40" as="geometry">
            <mxRectangle width="330" height="40" as="alternateBounds" />
          </mxGeometry>
        </mxCell>
        <mxCell id="PKO88a7LwcqLftBzNjsi-51" value="" style="shape=table;startSize=0;container=1;collapsible=0;childLayout=tableLayout;" parent="1" vertex="1">
          <mxGeometry x="190" y="430" width="330" height="40" as="geometry" />
        </mxCell>
        <mxCell id="PKO88a7LwcqLftBzNjsi-52" value="" style="shape=tableRow;horizontal=0;startSize=0;swimlaneHead=0;swimlaneBody=0;strokeColor=inherit;top=0;left=0;bottom=0;right=0;collapsible=0;dropTarget=0;fillColor=none;points=[[0,0.5],[1,0.5]];portConstraint=eastwest;" parent="PKO88a7LwcqLftBzNjsi-51" vertex="1">
          <mxGeometry width="330" height="40" as="geometry" />
        </mxCell>
        <mxCell id="PKO88a7LwcqLftBzNjsi-53" value="&lt;u&gt;FestivalGoerID&lt;/u&gt;" style="shape=partialRectangle;html=1;whiteSpace=wrap;connectable=0;strokeColor=inherit;overflow=hidden;fillColor=none;top=0;left=0;bottom=0;right=0;pointerEvents=1;" parent="PKO88a7LwcqLftBzNjsi-52" vertex="1">
          <mxGeometry width="90" height="40" as="geometry">
            <mxRectangle width="90" height="40" as="alternateBounds" />
          </mxGeometry>
        </mxCell>
        <mxCell id="PKO88a7LwcqLftBzNjsi-54" value="Balance" style="shape=partialRectangle;html=1;whiteSpace=wrap;connectable=0;strokeColor=inherit;overflow=hidden;fillColor=none;top=0;left=0;bottom=0;right=0;pointerEvents=1;" parent="PKO88a7LwcqLftBzNjsi-52" vertex="1">
          <mxGeometry x="90" width="70" height="40" as="geometry">
            <mxRectangle width="70" height="40" as="alternateBounds" />
          </mxGeometry>
        </mxCell>
        <mxCell id="ISqjivV7O6Bus1pjdpT5-9" value="SlotID" style="shape=partialRectangle;html=1;whiteSpace=wrap;connectable=0;strokeColor=#9673a6;overflow=hidden;fillColor=#e1d5e7;top=0;left=0;bottom=0;right=0;pointerEvents=1;" vertex="1" parent="PKO88a7LwcqLftBzNjsi-52">
          <mxGeometry x="160" width="70" height="40" as="geometry">
            <mxRectangle width="70" height="40" as="alternateBounds" />
          </mxGeometry>
        </mxCell>
        <mxCell id="ISqjivV7O6Bus1pjdpT5-10" value="ProposedFee" style="shape=partialRectangle;html=1;whiteSpace=wrap;connectable=0;strokeColor=inherit;overflow=hidden;fillColor=none;top=0;left=0;bottom=0;right=0;pointerEvents=1;" vertex="1" parent="PKO88a7LwcqLftBzNjsi-52">
          <mxGeometry x="230" width="100" height="40" as="geometry">
            <mxRectangle width="100" height="40" as="alternateBounds" />
          </mxGeometry>
        </mxCell>
        <mxCell id="ISqjivV7O6Bus1pjdpT5-11" value="" style="edgeStyle=segmentEdgeStyle;endArrow=classic;html=1;curved=0;rounded=0;endSize=8;startSize=8;sourcePerimeterSpacing=0;targetPerimeterSpacing=0;fontSize=12;exitX=0.605;exitY=1.001;exitDx=0;exitDy=0;exitPerimeter=0;entryX=0.05;entryY=0.949;entryDx=0;entryDy=0;entryPerimeter=0;" edge="1" parent="1" source="PKO88a7LwcqLftBzNjsi-52" target="1OvbaB2SJktq4wwTJ-ky-3">
          <mxGeometry width="140" relative="1" as="geometry">
            <mxPoint x="460" y="480" as="sourcePoint" />
            <mxPoint x="390" y="550" as="targetPoint" />
            <Array as="points" />
          </mxGeometry>
        </mxCell>
        <mxCell id="ISqjivV7O6Bus1pjdpT5-24" value="" style="edgeStyle=segmentEdgeStyle;endArrow=classic;html=1;curved=0;rounded=0;endSize=8;startSize=8;sourcePerimeterSpacing=0;targetPerimeterSpacing=0;fontSize=12;entryX=0.156;entryY=0.995;entryDx=0;entryDy=0;entryPerimeter=0;" edge="1" parent="1" target="PKO88a7LwcqLftBzNjsi-61">
          <mxGeometry width="140" relative="1" as="geometry">
            <mxPoint x="1000" y="494" as="sourcePoint" />
            <mxPoint x="1334.65" y="552.88" as="targetPoint" />
            <Array as="points">
              <mxPoint x="1000" y="490" />
              <mxPoint x="1000" y="540" />
              <mxPoint x="1224" y="540" />
            </Array>
          </mxGeometry>
        </mxCell>
        <mxCell id="ISqjivV7O6Bus1pjdpT5-25" value="" style="edgeStyle=segmentEdgeStyle;endArrow=classic;html=1;curved=0;rounded=0;endSize=8;startSize=8;sourcePerimeterSpacing=0;targetPerimeterSpacing=0;fontSize=12;exitX=0.145;exitY=0.972;exitDx=0;exitDy=0;exitPerimeter=0;entryX=0.263;entryY=1.008;entryDx=0;entryDy=0;entryPerimeter=0;" edge="1" parent="1" source="1OvbaB2SJktq4wwTJ-ky-17" target="PKO88a7LwcqLftBzNjsi-39">
          <mxGeometry width="140" relative="1" as="geometry">
            <mxPoint x="750" y="360" as="sourcePoint" />
            <mxPoint x="598" y="474" as="targetPoint" />
            <Array as="points">
              <mxPoint x="700" y="339" />
              <mxPoint x="700" y="370" />
              <mxPoint x="240" y="370" />
            </Array>
          </mxGeometry>
        </mxCell>
        <mxCell id="ISqjivV7O6Bus1pjdpT5-29" value="" style="edgeStyle=segmentEdgeStyle;endArrow=classic;html=1;curved=0;rounded=0;endSize=8;startSize=8;sourcePerimeterSpacing=0;targetPerimeterSpacing=0;fontSize=12;entryX=0.375;entryY=1.025;entryDx=0;entryDy=0;entryPerimeter=0;exitX=0.274;exitY=-0.05;exitDx=0;exitDy=0;exitPerimeter=0;" edge="1" parent="1" source="PKO88a7LwcqLftBzNjsi-92" target="PKO88a7LwcqLftBzNjsi-39">
          <mxGeometry width="140" relative="1" as="geometry">
            <mxPoint x="780" y="420" as="sourcePoint" />
            <mxPoint x="270" y="350" as="targetPoint" />
            <Array as="points">
              <mxPoint x="719" y="450" />
              <mxPoint x="720" y="450" />
              <mxPoint x="720" y="390" />
              <mxPoint x="550" y="390" />
              <mxPoint x="550" y="350" />
              <mxPoint x="261" y="350" />
            </Array>
          </mxGeometry>
        </mxCell>
        <mxCell id="ISqjivV7O6Bus1pjdpT5-30" value="" style="group" vertex="1" connectable="0" parent="1">
          <mxGeometry x="20" y="490" width="240" height="80" as="geometry" />
        </mxCell>
        <mxCell id="1OvbaB2SJktq4wwTJ-ky-30" value="" style="shape=table;startSize=0;container=1;collapsible=0;childLayout=tableLayout;" parent="ISqjivV7O6Bus1pjdpT5-30" vertex="1">
          <mxGeometry width="240" height="40" as="geometry" />
        </mxCell>
        <mxCell id="1OvbaB2SJktq4wwTJ-ky-31" value="" style="shape=tableRow;horizontal=0;startSize=0;swimlaneHead=0;swimlaneBody=0;strokeColor=inherit;top=0;left=0;bottom=0;right=0;collapsible=0;dropTarget=0;fillColor=none;points=[[0,0.5],[1,0.5]];portConstraint=eastwest;" parent="1OvbaB2SJktq4wwTJ-ky-30" vertex="1">
          <mxGeometry width="240" height="40" as="geometry" />
        </mxCell>
        <mxCell id="1OvbaB2SJktq4wwTJ-ky-32" value="&lt;b&gt;performsAt&lt;/b&gt;" style="shape=partialRectangle;html=1;whiteSpace=wrap;connectable=0;strokeColor=inherit;overflow=hidden;fillColor=none;top=0;left=0;bottom=0;right=0;pointerEvents=1;" parent="1OvbaB2SJktq4wwTJ-ky-31" vertex="1">
          <mxGeometry width="240" height="40" as="geometry">
            <mxRectangle width="240" height="40" as="alternateBounds" />
          </mxGeometry>
        </mxCell>
        <mxCell id="1OvbaB2SJktq4wwTJ-ky-36" value="" style="shape=table;startSize=0;container=1;collapsible=0;childLayout=tableLayout;" parent="ISqjivV7O6Bus1pjdpT5-30" vertex="1">
          <mxGeometry y="40" width="240" height="40" as="geometry" />
        </mxCell>
        <mxCell id="1OvbaB2SJktq4wwTJ-ky-37" value="" style="shape=tableRow;horizontal=0;startSize=0;swimlaneHead=0;swimlaneBody=0;strokeColor=inherit;top=0;left=0;bottom=0;right=0;collapsible=0;dropTarget=0;fillColor=none;points=[[0,0.5],[1,0.5]];portConstraint=eastwest;" parent="1OvbaB2SJktq4wwTJ-ky-36" vertex="1">
          <mxGeometry width="240" height="40" as="geometry" />
        </mxCell>
        <mxCell id="1OvbaB2SJktq4wwTJ-ky-69" value="&lt;u&gt;FestivalGoerID&lt;/u&gt;" style="shape=partialRectangle;html=1;whiteSpace=wrap;connectable=0;strokeColor=inherit;overflow=hidden;fillColor=none;top=0;left=0;bottom=0;right=0;pointerEvents=1;" parent="1OvbaB2SJktq4wwTJ-ky-37" vertex="1">
          <mxGeometry width="90" height="40" as="geometry">
            <mxRectangle width="90" height="40" as="alternateBounds" />
          </mxGeometry>
        </mxCell>
        <mxCell id="1OvbaB2SJktq4wwTJ-ky-68" value="SlotID" style="shape=partialRectangle;html=1;whiteSpace=wrap;connectable=0;strokeColor=inherit;overflow=hidden;fillColor=none;top=0;left=0;bottom=0;right=0;pointerEvents=1;" parent="1OvbaB2SJktq4wwTJ-ky-37" vertex="1">
          <mxGeometry x="90" width="70" height="40" as="geometry">
            <mxRectangle width="70" height="40" as="alternateBounds" />
          </mxGeometry>
        </mxCell>
        <mxCell id="1OvbaB2SJktq4wwTJ-ky-38" value="TicketPrice" style="shape=partialRectangle;html=1;whiteSpace=wrap;connectable=0;strokeColor=inherit;overflow=hidden;fillColor=none;top=0;left=0;bottom=0;right=0;pointerEvents=1;" parent="1OvbaB2SJktq4wwTJ-ky-37" vertex="1">
          <mxGeometry x="160" width="80" height="40" as="geometry">
            <mxRectangle width="80" height="40" as="alternateBounds" />
          </mxGeometry>
        </mxCell>
        <mxCell id="ISqjivV7O6Bus1pjdpT5-34" value="" style="edgeStyle=segmentEdgeStyle;endArrow=classic;html=1;curved=0;rounded=0;endSize=8;startSize=8;sourcePerimeterSpacing=0;targetPerimeterSpacing=0;fontSize=12;entryX=0;entryY=0.75;entryDx=0;entryDy=0;" edge="1" parent="ISqjivV7O6Bus1pjdpT5-30" target="1OvbaB2SJktq4wwTJ-ky-5">
          <mxGeometry width="140" relative="1" as="geometry">
            <mxPoint x="120" y="80" as="sourcePoint" />
            <mxPoint x="260" y="140" as="targetPoint" />
            <Array as="points">
              <mxPoint x="120" y="110" />
            </Array>
          </mxGeometry>
        </mxCell>
        <mxCell id="ISqjivV7O6Bus1pjdpT5-31" value="&lt;font style=&quot;font-size: 12px;&quot;&gt;&lt;b&gt;appliesFor&lt;/b&gt;&lt;/font&gt;" style="text;strokeColor=#9673a6;fillColor=#e1d5e7;html=1;align=center;verticalAlign=middle;whiteSpace=wrap;rounded=0;fontSize=16;" vertex="1" parent="1">
          <mxGeometry x="367" y="614" width="70" height="20" as="geometry" />
        </mxCell>
        <mxCell id="ISqjivV7O6Bus1pjdpT5-32" value="" style="edgeStyle=segmentEdgeStyle;endArrow=classic;html=1;curved=0;rounded=0;endSize=8;startSize=8;sourcePerimeterSpacing=0;targetPerimeterSpacing=0;fontSize=12;" edge="1" parent="1">
          <mxGeometry width="140" relative="1" as="geometry">
            <mxPoint x="70" y="530" as="sourcePoint" />
            <mxPoint x="190" y="190" as="targetPoint" />
            <Array as="points">
              <mxPoint x="70" y="190" />
            </Array>
          </mxGeometry>
        </mxCell>
        <mxCell id="ISqjivV7O6Bus1pjdpT5-37" value="" style="edgeStyle=none;orthogonalLoop=1;jettySize=auto;html=1;rounded=0;fontSize=12;startSize=8;endSize=8;curved=1;exitX=0.922;exitY=-0.017;exitDx=0;exitDy=0;exitPerimeter=0;" edge="1" parent="1" source="PKO88a7LwcqLftBzNjsi-92">
          <mxGeometry width="140" relative="1" as="geometry">
            <mxPoint x="1076.944" y="447.48000000000025" as="sourcePoint" />
            <mxPoint x="1077" y="227" as="targetPoint" />
            <Array as="points" />
          </mxGeometry>
        </mxCell>
        <mxCell id="ISqjivV7O6Bus1pjdpT5-38" value="" style="edgeStyle=segmentEdgeStyle;endArrow=classic;html=1;curved=0;rounded=0;endSize=8;startSize=8;sourcePerimeterSpacing=0;targetPerimeterSpacing=0;fontSize=12;exitX=0;exitY=0.5;exitDx=0;exitDy=0;entryX=0.163;entryY=1.048;entryDx=0;entryDy=0;entryPerimeter=0;" edge="1" parent="1" source="PKO88a7LwcqLftBzNjsi-122" target="PKO88a7LwcqLftBzNjsi-101">
          <mxGeometry width="140" relative="1" as="geometry">
            <mxPoint x="1040" y="220" as="sourcePoint" />
            <mxPoint x="1180" y="280" as="targetPoint" />
            <Array as="points">
              <mxPoint x="1095" y="320" />
            </Array>
          </mxGeometry>
        </mxCell>
      </root>
    </mxGraphModel>
  </diagram>
</mxfile>
